<svg width="52" height="52" viewBox="0 0 52 52" fill="none" xmlns="http://www.w3.org/2000/svg">
<g id="mdi:bedroom">
<path id="Vector" d="M39.0001 21.6666V15.1666C39.0001 14.0174 38.5435 12.9152 37.7309 12.1025C36.9182 11.2899 35.816 10.8333 34.6667 10.8333H17.3334C16.1841 10.8333 15.0819 11.2899 14.2693 12.1025C13.4566 12.9152 13.0001 14.0174 13.0001 15.1666V21.6666C11.8508 21.6666 10.7486 22.1232 9.93595 22.9359C9.12329 23.7485 8.66675 24.8507 8.66675 26V36.8333H11.5484L13.0001 41.1666H15.1667L16.6184 36.8333H35.3817L36.8334 41.1666H39.0001L40.4517 36.8333H43.3334V26C43.3334 24.8507 42.8769 23.7485 42.0642 22.9359C41.2516 22.1232 40.1494 21.6666 39.0001 21.6666ZM23.8334 21.6666H17.3334V15.1666H23.8334M34.6667 21.6666H28.1667V15.1666H34.6667V21.6666Z" fill="#152C5B"/>
</g>
</svg>
