<svg width="46" height="46" viewBox="0 0 46 46" fill="none" xmlns="http://www.w3.org/2000/svg">
<g id="mdi:television">
<path id="Vector" d="M40.2498 32.5833H5.74984V9.58333H40.2498M40.2498 5.75H5.74984C4.73317 5.75 3.75815 6.15387 3.03926 6.87276C2.32037 7.59165 1.9165 8.56667 1.9165 9.58333V32.5833C1.9165 33.6 2.32037 34.575 3.03926 35.2939C3.75815 36.0128 4.73317 36.4167 5.74984 36.4167H15.3332V40.25H30.6665V36.4167H40.2498C41.2665 36.4167 42.2415 36.0128 42.9604 35.2939C43.6793 34.575 44.0832 33.6 44.0832 32.5833V9.58333C44.0832 8.56667 43.6793 7.59165 42.9604 6.87276C42.2415 6.15387 41.2665 5.75 40.2498 5.75Z" fill="#152C5B"/>
</g>
</svg>
