<svg width="48" height="48" viewBox="0 0 48 48" fill="none" xmlns="http://www.w3.org/2000/svg">
<g id="material-symbols:wifi">
<path id="Vector" d="M17.1125 32.0294L13.4375 28.2353C15.1583 26.5 17.1784 25.1253 19.4977 24.1112C21.8171 23.0971 24.3178 22.5894 27 22.5882C29.6833 22.5882 32.1847 23.1029 34.504 24.1324C36.8233 25.1618 38.8428 26.5588 40.5625 28.3235L36.8875 32.0294C35.6042 30.7353 34.1167 29.7206 32.425 28.9853C30.7333 28.25 28.925 27.8824 27 27.8824C25.075 27.8824 23.2667 28.25 21.575 28.9853C19.8833 29.7206 18.3958 30.7353 17.1125 32.0294ZM9.675 24.5294L6 20.8235C8.68333 18.0588 11.8187 15.8971 15.4062 14.3382C18.9937 12.7794 22.8583 12 27 12C31.1417 12 35.0063 12.7794 38.5938 14.3382C42.1813 15.8971 45.3167 18.0588 48 20.8235L44.325 24.5294C42.0792 22.2647 39.4757 20.4924 36.5148 19.2124C33.5538 17.9324 30.3822 17.2929 27 17.2941C23.6167 17.2941 20.4445 17.9341 17.4835 19.2141C14.5225 20.4941 11.9197 22.2659 9.675 24.5294ZM27 42L33.1687 35.7353C32.3812 34.9412 31.4625 34.3159 30.4125 33.8594C29.3625 33.4029 28.225 33.1753 27 33.1765C25.775 33.1765 24.6375 33.4047 23.5875 33.8612C22.5375 34.3176 21.6188 34.9424 20.8313 35.7353L27 42Z" fill="#152C5B"/>
</g>
</svg>
