<svg width="48" height="48" viewBox="0 0 48 48" fill="none" xmlns="http://www.w3.org/2000/svg">
<g id="material-symbols:door-open">
<path id="Vector" d="M5.25 42.75V38.5833H9.41667V9.41667C9.41667 8.27084 9.825 7.28959 10.6417 6.47292C11.4583 5.65625 12.4389 5.24861 13.5833 5.25H34.4167C35.5625 5.25 36.5437 5.65834 37.3604 6.475C38.1771 7.29167 38.5847 8.27223 38.5833 9.41667V38.5833H42.75V42.75H5.25ZM30.25 38.5833H34.4167V9.41667H25.0417V7.125C26.5694 7.40278 27.8194 8.11459 28.7917 9.26042C29.7639 10.4063 30.25 11.7431 30.25 13.2708V38.5833ZM21.9167 26.0833C22.5069 26.0833 23.0021 25.8833 23.4021 25.4833C23.8021 25.0833 24.0014 24.5889 24 24C24 23.4097 23.8 22.9146 23.4 22.5146C23 22.1146 22.5056 21.9153 21.9167 21.9167C21.3264 21.9167 20.8312 22.1167 20.4312 22.5167C20.0312 22.9167 19.8319 23.4111 19.8333 24C19.8333 24.5903 20.0333 25.0854 20.4333 25.4854C20.8333 25.8854 21.3278 26.0847 21.9167 26.0833Z" fill="#152C5B"/>
</g>
</svg>
