<svg width="45" height="44" viewBox="0 0 45 44" fill="none" xmlns="http://www.w3.org/2000/svg">
<g id="material-symbols:brunch-dining-outline-sharp">
<path id="Vector" d="M3.75 40.3334V36.6667H30V40.3334H3.75ZM3.75 33V29.3334H13.125V25.6667H20.625V29.3334H30V33H3.75ZM33.75 40.3334V29.15C32.625 27.8972 31.7187 26.6597 31.0312 25.4375C30.3437 24.2153 30 22.7334 30 20.9917V3.66669H41.25V20.9917C41.25 22.7334 40.9137 24.2226 40.2412 25.4595C39.57 26.6976 38.6562 27.9278 37.5 29.15V36.6667H41.25V40.3334H33.75ZM33.75 14.6667H37.5V7.33335H33.75V14.6667ZM35.625 25.7584C36.1875 25.1167 36.6406 24.3834 36.9844 23.5584C37.3281 22.7334 37.5 21.8778 37.5 20.9917V18.3334H33.75V20.9917C33.75 21.8778 33.9062 22.7334 34.2188 23.5584C34.5312 24.3834 35 25.1167 35.625 25.7584Z" fill="#152C5B"/>
</g>
</svg>
