<svg width="48" height="48" viewBox="0 0 48 48" fill="none" xmlns="http://www.w3.org/2000/svg">
<g clip-path="url(#clip0_35_413)">
<rect width="48" height="48" fill="white"/>
<path d="M12 34H36V28H12V34ZM8 40C6.9 40 5.958 39.6087 5.174 38.826C4.39 38.0433 3.99867 37.1013 4 36V12C4 10.9 4.392 9.958 5.176 9.174C5.96 8.39 6.90134 7.99867 8 8H40C41.1 8 42.042 8.392 42.826 9.176C43.61 9.96 44.0013 10.9013 44 12V36C44 37.1 43.608 38.042 42.824 38.826C42.04 39.61 41.0987 40.0013 40 40H8Z" fill="#152C5B"/>
</g>
<defs>
<clipPath id="clip0_35_413">
<rect width="48" height="48" fill="white"/>
</clipPath>
</defs>
</svg>
