<svg width="48" height="48" viewBox="0 0 48 48" fill="none" xmlns="http://www.w3.org/2000/svg">
<g clip-path="url(#clip0_33_358)">
<rect width="48" height="48" fill="white"/>
<path d="M42 28V30C42 33.82 39.86 37.14 36.7 38.82L38 44H34L33 40H15L14 44H10L11.3 38.82C9.69837 37.9704 8.35862 36.7003 7.42478 35.1462C6.49095 33.5922 5.99837 31.813 6 30V28H4V24H40V10C40 9.46957 39.7893 8.96086 39.4142 8.58579C39.0391 8.21071 38.5304 8 38 8C37 8 36.24 8.68 36 9.58C37.26 10.66 38 12.26 38 14H26C26 12.4087 26.6321 10.8826 27.7574 9.75736C28.8826 8.63214 30.4087 8 32 8H32.34C33.16 5.68 35.38 4 38 4C39.5913 4 41.1174 4.63214 42.2426 5.75736C43.3679 6.88258 44 8.4087 44 10V28H42ZM38 28H10V30C10 31.5913 10.6321 33.1174 11.7574 34.2426C12.8826 35.3679 14.4087 36 16 36H32C33.5913 36 35.1174 35.3679 36.2426 34.2426C37.3679 33.1174 38 31.5913 38 30V28Z" fill="#152C5B"/>
</g>
<defs>
<clipPath id="clip0_33_358">
<rect width="48" height="48" fill="white"/>
</clipPath>
</defs>
</svg>
