<svg width="48" height="48" viewBox="0 0 48 48" fill="none" xmlns="http://www.w3.org/2000/svg">
<rect width="48" height="48" fill="white"/>
<path d="M3.75 42.3333V38.6667H30V42.3333H3.75ZM3.75 35V31.3333H13.125V27.6667H20.625V31.3333H30V35H3.75ZM33.75 42.3333V31.15C32.625 29.8972 31.7187 28.6597 31.0312 27.4375C30.3437 26.2153 30 24.7333 30 22.9917V5.66666H41.25V22.9917C41.25 24.7333 40.9137 26.2226 40.2412 27.4595C39.57 28.6976 38.6562 29.9278 37.5 31.15V38.6667H41.25V42.3333H33.75ZM33.75 16.6667H37.5V9.33333H33.75V16.6667ZM35.625 27.7583C36.1875 27.1167 36.6406 26.3833 36.9844 25.5583C37.3281 24.7333 37.5 23.8778 37.5 22.9917V20.3333H33.75V22.9917C33.75 23.8778 33.9062 24.7333 34.2188 25.5583C34.5312 26.3833 35 27.1167 35.625 27.7583Z" fill="#152C5B"/>
</svg>
