<svg width="48" height="48" viewBox="0 0 48 48" fill="none" xmlns="http://www.w3.org/2000/svg">
<g clip-path="url(#clip0_7_108)">
<rect width="48" height="48" fill="white"/>
<path d="M41 19H36" stroke="#152C5B" stroke-width="3" stroke-linecap="round"/>
<circle cx="25" cy="25" r="6.5" stroke="#FF498B" stroke-width="3"/>
<mask id="path-3-inside-1_7_108" fill="white">
<path fill-rule="evenodd" clip-rule="evenodd" d="M18.1396 6C17.1862 6 16.3654 6.67292 16.1784 7.60777L15.2 12.5H9C4.58172 12.5 1 16.0817 1 20.5V34.5C1 38.9183 4.58172 42.5 9 42.5H41C45.4183 42.5 49 38.9183 49 34.5V20.5C49 16.0817 45.4183 12.5 41 12.5H35.04L34.2694 7.68402C34.1142 6.71377 33.2772 6 32.2946 6H18.1396Z"/>
</mask>
<path d="M16.1784 7.60777L13.2367 7.01942V7.01942L16.1784 7.60777ZM15.2 12.5V15.5H17.6594L18.1417 13.0883L15.2 12.5ZM35.04 12.5L32.0777 12.974L32.4818 15.5H35.04V12.5ZM34.2694 7.68402L31.3071 8.15799V8.15799L34.2694 7.68402ZM19.1202 8.19611C19.0267 8.66354 18.6163 9 18.1396 9V3C15.7562 3 13.7041 4.68229 13.2367 7.01942L19.1202 8.19611ZM18.1417 13.0883L19.1202 8.19611L13.2367 7.01942L12.2583 11.9117L18.1417 13.0883ZM9 15.5H15.2V9.5H9V15.5ZM4 20.5C4 17.7386 6.23858 15.5 9 15.5V9.5C2.92487 9.5 -2 14.4249 -2 20.5H4ZM4 34.5V20.5H-2V34.5H4ZM9 39.5C6.23858 39.5 4 37.2614 4 34.5H-2C-2 40.5751 2.92487 45.5 9 45.5V39.5ZM41 39.5H9V45.5H41V39.5ZM46 34.5C46 37.2614 43.7614 39.5 41 39.5V45.5C47.0751 45.5 52 40.5751 52 34.5H46ZM46 20.5V34.5H52V20.5H46ZM41 15.5C43.7614 15.5 46 17.7386 46 20.5H52C52 14.4249 47.0751 9.5 41 9.5V15.5ZM35.04 15.5H41V9.5H35.04V15.5ZM31.3071 8.15799L32.0777 12.974L38.0023 12.026L37.2318 7.21005L31.3071 8.15799ZM32.2946 9C31.8033 9 31.3847 8.64312 31.3071 8.15799L37.2318 7.21005C36.8437 4.78441 34.751 3 32.2946 3V9ZM18.1396 9H32.2946V3H18.1396V9Z" fill="#152C5B" mask="url(#path-3-inside-1_7_108)"/>
</g>
<defs>
<clipPath id="clip0_7_108">
<rect width="48" height="48" fill="white"/>
</clipPath>
</defs>
</svg>
