<svg width="48" height="48" viewBox="0 0 48 48" fill="none" xmlns="http://www.w3.org/2000/svg">
<g clip-path="url(#clip0_33_368)">
<rect width="48" height="48" fill="white"/>
<path d="M12.7 30.7L8.5 26.4C10.4667 24.4333 12.7753 22.8753 15.426 21.726C18.0767 20.5767 20.9347 20.0013 24 20C27.0667 20 29.9253 20.5833 32.576 21.75C35.2267 22.9167 37.5347 24.5 39.5 26.5L35.3 30.7C33.8333 29.2333 32.1333 28.0833 30.2 27.25C28.2667 26.4167 26.2 26 24 26C21.8 26 19.7333 26.4167 17.8 27.25C15.8667 28.0833 14.1667 29.2333 12.7 30.7ZM4.2 22.2L0 18C3.06667 14.8667 6.65 12.4167 10.75 10.65C14.85 8.88333 19.2667 8 24 8C28.7333 8 33.15 8.88333 37.25 10.65C41.35 12.4167 44.9333 14.8667 48 18L43.8 22.2C41.2333 19.6333 38.258 17.6247 34.874 16.174C31.49 14.7233 27.8653 13.9987 24 14C20.1333 14 16.508 14.7253 13.124 16.176C9.74 17.6267 6.76533 19.6347 4.2 22.2ZM24 42L31.05 34.9C30.15 34 29.1 33.2913 27.9 32.774C26.7 32.2567 25.4 31.9987 24 32C22.6 32 21.3 32.2587 20.1 32.776C18.9 33.2933 17.85 34.0013 16.95 34.9L24 42Z" fill="#152C5B"/>
</g>
<defs>
<clipPath id="clip0_33_368">
<rect width="48" height="48" fill="white"/>
</clipPath>
</defs>
</svg>
