<svg width="48" height="48" viewBox="0 0 48 48" fill="none" xmlns="http://www.w3.org/2000/svg">
<g clip-path="url(#clip0_7_71)">
<rect width="48" height="48" fill="white"/>
<path d="M28.5 41.5C28.5 41.8961 28.3211 42.395 27.7478 42.9824C27.1678 43.5766 26.2552 44.1803 25.0102 44.7199C22.525 45.7968 18.987 46.5 15 46.5C11.013 46.5 7.47501 45.7968 4.98981 44.7199C3.74478 44.1803 2.83219 43.5766 2.2522 42.9824C1.67892 42.395 1.5 41.8961 1.5 41.5C1.5 41.1039 1.67892 40.605 2.2522 40.0176C2.83219 39.4234 3.74478 38.8197 4.98981 38.2801C7.47501 37.2032 11.013 36.5 15 36.5C18.987 36.5 22.525 37.2032 25.0102 38.2801C26.2552 38.8197 27.1678 39.4234 27.7478 40.0176C28.3211 40.605 28.5 41.1039 28.5 41.5Z" stroke="#152C5B" stroke-width="3"/>
<path d="M26.5 12.5C26.5 13.6413 26.181 15.946 25.5517 18.8488C24.9304 21.715 24.031 25.0535 22.9229 28.2224C21.8092 31.4074 20.5108 34.3452 19.1143 36.4574C18.416 37.5136 17.7322 38.3031 17.0865 38.8158C16.4451 39.3251 15.9221 39.5 15.5 39.5C15.0779 39.5 14.5549 39.3251 13.9135 38.8158C13.2678 38.3031 12.584 37.5136 11.8857 36.4574C10.4892 34.3452 9.19078 31.4074 8.0771 28.2224C6.96904 25.0535 6.06961 21.715 5.44826 18.8488C4.81898 15.946 4.5 13.6413 4.5 12.5C4.5 10.4461 5.59175 8.47928 7.56879 6.97673C9.54695 5.47333 12.3461 4.5 15.5 4.5C18.6539 4.5 21.4531 5.47333 23.4312 6.97673C25.4083 8.47928 26.5 10.4461 26.5 12.5Z" fill="white" stroke="#152C5B" stroke-width="3"/>
<circle cx="15" cy="16" r="4.5" stroke="#FF498B" stroke-width="3"/>
</g>
<defs>
<clipPath id="clip0_7_71">
<rect width="48" height="48" fill="white"/>
</clipPath>
</defs>
</svg>
