<svg width="48" height="48" viewBox="0 0 48 48" fill="none" xmlns="http://www.w3.org/2000/svg">
<g clip-path="url(#clip0_33_373)">
<rect width="48" height="48" fill="white"/>
<path d="M14 4C12.9391 4 11.9217 4.42143 11.1716 5.17157C10.4214 5.92172 10 6.93913 10 8V38C10 39.0609 10.4214 40.0783 11.1716 40.8284C11.9217 41.5786 12.9391 42 14 42V44H18V42H30V44H34V42C35.0609 42 36.0783 41.5786 36.8284 40.8284C37.5786 40.0783 38 39.0609 38 38V8C38 6.93913 37.5786 5.92172 36.8284 5.17157C36.0783 4.42143 35.0609 4 34 4H14ZM16 12H20V16H16V12ZM14 22H34V38H14V22ZM16 24V30H20V24H16Z" fill="#152C5B"/>
</g>
<defs>
<clipPath id="clip0_33_373">
<rect width="48" height="48" fill="white"/>
</clipPath>
</defs>
</svg>
