<svg width="48" height="48" viewBox="0 0 48 48" fill="none" xmlns="http://www.w3.org/2000/svg">
<g clip-path="url(#clip0_28_41)">
<rect width="48" height="48" fill="white"/>
<path d="M20.0489 3.92705C20.3483 3.00574 21.6517 3.00574 21.9511 3.92705L26.1638 16.8926C26.2977 17.3046 26.6817 17.5836 27.1149 17.5836H40.7477C41.7164 17.5836 42.1192 18.8232 41.3355 19.3926L30.3063 27.4058C29.9558 27.6604 29.8092 28.1118 29.943 28.5238L34.1558 41.4894C34.4551 42.4107 33.4007 43.1768 32.6169 42.6074L21.5878 34.5942C21.2373 34.3396 20.7627 34.3396 20.4122 34.5942L9.38305 42.6074C8.59934 43.1768 7.54486 42.4107 7.84421 41.4894L12.057 28.5238C12.1909 28.1118 12.0442 27.6604 11.6937 27.4058L0.664543 19.3926C-0.11917 18.8232 0.283604 17.5836 1.25233 17.5836H14.8851C15.3183 17.5836 15.7023 17.3046 15.8362 16.8926L20.0489 3.92705Z" fill="#F9D557"/>
</g>
<defs>
<clipPath id="clip0_28_41">
<rect width="48" height="48" fill="white"/>
</clipPath>
</defs>
</svg>
