<svg width="48" height="48" viewBox="0 0 48 48" fill="none" xmlns="http://www.w3.org/2000/svg">
<rect width="48" height="48" fill="white"/>
<path d="M41.25 32.5833H6.75001V9.58333H41.25M41.25 5.75H6.75001C5.73334 5.75 4.75832 6.15387 4.03943 6.87276C3.32054 7.59165 2.91667 8.56667 2.91667 9.58333V32.5833C2.91667 33.6 3.32054 34.575 4.03943 35.2939C4.75832 36.0128 5.73334 36.4167 6.75001 36.4167H16.3333V40.25H31.6667V36.4167H41.25C42.2667 36.4167 43.2417 36.0128 43.9606 35.2939C44.6795 34.575 45.0833 33.6 45.0833 32.5833V9.58333C45.0833 8.56667 44.6795 7.59165 43.9606 6.87276C43.2417 6.15387 42.2667 5.75 41.25 5.75Z" fill="#152C5B"/>
</svg>
