<svg width="48" height="48" viewBox="0 0 48 48" fill="none" xmlns="http://www.w3.org/2000/svg">
<g clip-path="url(#clip0_30_353)">
<rect width="48" height="48" fill="white"/>
<path d="M38.75 20.4167V12.7917C38.75 11.4435 38.2144 10.1505 37.2611 9.19721C36.3078 8.2439 35.0148 7.70834 33.6667 7.70834H13.3333C11.9851 7.70834 10.6922 8.2439 9.73887 9.19721C8.78556 10.1505 8.25 11.4435 8.25 12.7917V20.4167C6.90181 20.4167 5.60885 20.9522 4.65554 21.9055C3.70223 22.8589 3.16666 24.1518 3.16666 25.5V38.2083H6.54708L8.25 43.2917H10.7917L12.4946 38.2083H34.5054L36.2083 43.2917H38.75L40.4529 38.2083H43.8333V25.5C43.8333 24.1518 43.2978 22.8589 42.3445 21.9055C41.3911 20.9522 40.0982 20.4167 38.75 20.4167ZM20.9583 20.4167H13.3333V12.7917H20.9583M33.6667 20.4167H26.0417V12.7917H33.6667V20.4167Z" fill="#152C5B"/>
</g>
<defs>
<clipPath id="clip0_30_353">
<rect width="48" height="48" fill="white"/>
</clipPath>
</defs>
</svg>
